<?xml version="1.0" encoding="UTF-8"?>
<svg width="32" height="32" viewBox="0 0 32 32" fill="none" xmlns="http://www.w3.org/2000/svg">
  <rect width="32" height="32" rx="6" fill="#4F46E5"/>
  <path d="M16 8C11.6 8 8 11.6 8 16C8 20.4 11.6 24 16 24C20.4 24 24 20.4 24 16C24 11.6 20.4 8 16 8ZM17.6 22H14.4V19.2H17.6V22ZM18.8 14.8C18.8 15.6 18.4 16 17.6 16.8L16.8 17.6V18H14.4V16.4L15.6 15.2C16.4 14.4 16.8 14 16.8 13.2C16.8 12.8 16.8 12.4 16.4 12C16 11.6 15.6 11.2 14.8 11.2C14 11.2 13.2 11.6 12.8 12L11.2 10.8C11.6 10 12.8 8.8 14.8 8.8C16.8 8.8 18 10 18.4 11.2C18.8 12.4 18.8 13.6 18.8 14.8Z" fill="white"/>
</svg>
